<svg width="45" height="45" viewBox="0 0 45 45" fill="none" xmlns="http://www.w3.org/2000/svg">
<path d="M22.4976 17.9436C19.9758 17.9436 17.9406 19.9789 17.9406 22.5007C17.9406 25.0226 19.9758 27.0578 22.4976 27.0578C25.0194 27.0578 27.0546 25.0226 27.0546 22.5007C27.0546 19.9789 25.0194 17.9436 22.4976 17.9436ZM22.4976 25.4625C20.8668 25.4625 19.5359 24.1316 19.5359 22.5007C19.5359 20.8698 20.8668 19.5389 22.4976 19.5389C24.1284 19.5389 25.4593 20.8698 25.4593 22.5007C25.4593 24.1316 24.1284 25.4625 22.4976 25.4625ZM27.2413 16.6949C26.6525 16.6949 26.177 17.1704 26.177 17.7592C26.177 18.348 26.6525 18.8235 27.2413 18.8235C27.8301 18.8235 28.3055 18.3502 28.3055 17.7592C28.3057 17.6194 28.2783 17.4809 28.2249 17.3517C28.1715 17.2225 28.0931 17.1051 27.9942 17.0062C27.8953 16.9074 27.7779 16.829 27.6487 16.7756C27.5195 16.7221 27.3811 16.6947 27.2413 16.6949ZM31.3806 22.5007C31.3806 21.2742 31.3917 20.0589 31.3228 18.8346C31.2539 17.4126 30.9295 16.1505 29.8897 15.1107C28.8477 14.0686 27.5879 13.7464 26.1659 13.6776C24.9394 13.6087 23.7241 13.6198 22.4998 13.6198C21.2734 13.6198 20.058 13.6087 18.8338 13.6776C17.4118 13.7464 16.1498 14.0708 15.1099 15.1107C14.0679 16.1528 13.7457 17.4126 13.6768 18.8346C13.608 20.0611 13.6191 21.2765 13.6191 22.5007C13.6191 23.725 13.608 24.9426 13.6768 26.1668C13.7457 27.5889 14.0701 28.8509 15.1099 29.8907C16.152 30.9328 17.4118 31.255 18.8338 31.3239C20.0602 31.3927 21.2756 31.3816 22.4998 31.3816C23.7263 31.3816 24.9416 31.3927 26.1659 31.3239C27.5879 31.255 28.8499 30.9306 29.8897 29.8907C30.9318 28.8487 31.2539 27.5889 31.3228 26.1668C31.3939 24.9426 31.3806 23.7272 31.3806 22.5007ZM29.4253 27.74C29.2631 28.1443 29.0676 28.4465 28.7543 28.7576C28.4411 29.0709 28.1411 29.2664 27.7367 29.4286C26.568 29.893 23.7929 29.7885 22.4976 29.7885C21.2023 29.7885 18.4249 29.893 17.2562 29.4308C16.8519 29.2686 16.5497 29.0731 16.2386 28.7598C15.9254 28.4465 15.7298 28.1466 15.5676 27.7422C15.1055 26.5712 15.2099 23.7961 15.2099 22.5007C15.2099 21.2054 15.1055 18.428 15.5676 17.2593C15.7298 16.8549 15.9254 16.5527 16.2386 16.2416C16.5519 15.9306 16.8519 15.7328 17.2562 15.5706C18.4249 15.1085 21.2023 15.2129 22.4976 15.2129C23.7929 15.2129 26.5703 15.1085 27.739 15.5706C28.1433 15.7328 28.4455 15.9284 28.7566 16.2416C29.0698 16.5549 29.2654 16.8549 29.4276 17.2593C29.8897 18.428 29.7853 21.2054 29.7853 22.5007C29.7853 23.7961 29.8897 26.5712 29.4253 27.74Z" fill="white"/>
<circle cx="22.5" cy="22.5" r="21.5" stroke="#5FB356" stroke-width="2"/>
</svg>
