<svg width="45" height="45" viewBox="0 0 45 45" fill="none" xmlns="http://www.w3.org/2000/svg">
<circle cx="22.5" cy="22.5" r="20" stroke="#5FB356" stroke-width="5"/>
<path d="M30 18.35C30 17.3848 29.806 16.429 29.4291 15.5373C29.0522 14.6455 28.4997 13.8353 27.8033 13.1528C27.1069 12.4703 26.2801 11.9289 25.3701 11.5595C24.4602 11.1901 23.4849 11 22.5 11C21.5151 11 20.5398 11.1901 19.6299 11.5595C18.7199 11.9289 17.8931 12.4703 17.1967 13.1528C16.5003 13.8353 15.9478 14.6455 15.5709 15.5373C15.194 16.429 15 17.3848 15 18.35C15 19.8063 15.4393 21.1608 16.1839 22.3033H16.1754C18.7039 26.183 22.5 32 22.5 32L28.8246 22.3033H28.8171C29.589 21.1234 29.9995 19.7515 30 18.35ZM22.5 21.5C21.6475 21.5 20.83 21.1681 20.2272 20.5774C19.6244 19.9866 19.2857 19.1854 19.2857 18.35C19.2857 17.5146 19.6244 16.7134 20.2272 16.1226C20.83 15.5319 21.6475 15.2 22.5 15.2C23.3525 15.2 24.17 15.5319 24.7728 16.1226C25.3756 16.7134 25.7143 17.5146 25.7143 18.35C25.7143 19.1854 25.3756 19.9866 24.7728 20.5774C24.17 21.1681 23.3525 21.5 22.5 21.5Z" fill="white"/>
</svg>
