<svg width="45" height="45" viewBox="0 0 45 45" fill="none" xmlns="http://www.w3.org/2000/svg">
<circle cx="22.5" cy="22.5" r="20" stroke="#5FB356" stroke-width="5"/>
<path d="M16.0222 20.6556C17.6222 23.8 20.2 26.3667 23.3444 27.9778L25.7889 25.5333C26.0889 25.2333 26.5333 25.1333 26.9222 25.2667C28.1667 25.6778 29.5111 25.9 30.8889 25.9C31.5 25.9 32 26.4 32 27.0111V30.8889C32 31.5 31.5 32 30.8889 32C20.4556 32 12 23.5444 12 13.1111C12 12.5 12.5 12 13.1111 12H17C17.6111 12 18.1111 12.5 18.1111 13.1111C18.1111 14.5 18.3333 15.8333 18.7444 17.0778C18.8667 17.4667 18.7778 17.9 18.4667 18.2111L16.0222 20.6556Z" fill="white"/>
</svg>
