<svg width="45" height="45" viewBox="0 0 45 45" fill="none" xmlns="http://www.w3.org/2000/svg">
<circle cx="22.5" cy="22.5" r="20" stroke="#5FB356" stroke-width="5"/>
<path d="M22.7901 11.029C21.2163 10.9144 19.6362 11.1401 18.1573 11.6906C16.6784 12.2412 15.3354 13.1037 14.2195 14.2195C13.1037 15.3354 12.2412 16.6784 11.6906 18.1573C11.1401 19.6362 10.9144 21.2163 11.029 22.7901C11.4251 28.6102 16.508 33 22.3391 33H26.3988C27.0039 33 27.499 32.5049 27.499 31.8998C27.499 31.2947 27.0039 30.7996 26.3988 30.7996H22.3611C18.2573 30.7996 14.4946 28.1371 13.4715 24.1654C11.8322 17.7842 17.7732 11.8322 24.1544 13.4825C28.1371 14.4946 30.7996 18.2573 30.7996 22.3611V23.5713C30.7996 24.4404 30.0185 25.2986 29.1493 25.2986C28.2801 25.2986 27.499 24.4404 27.499 23.5713V22.196C27.499 19.4345 25.5406 16.9481 22.8122 16.563C21.944 16.4339 21.0577 16.5141 20.2268 16.7968C19.3959 17.0796 18.6446 17.5567 18.0355 18.1885C17.4263 18.8203 16.9768 19.5884 16.7245 20.429C16.4722 21.2696 16.4244 22.1584 16.585 23.0212C16.778 24.0608 17.2667 25.0228 17.9927 25.7916C18.7186 26.5605 19.6509 27.1037 20.6778 27.356C22.7021 27.8291 24.6275 27.1799 25.8927 25.8927C26.8719 27.235 28.8302 27.9391 30.6236 27.224C32.0978 26.6408 33 25.1336 33 23.5493V22.3501C33 16.508 28.6102 11.4251 22.7901 11.029ZM21.998 25.2986C20.1717 25.2986 18.6974 23.8243 18.6974 21.998C18.6974 20.1717 20.1717 18.6974 21.998 18.6974C23.8243 18.6974 25.2986 20.1717 25.2986 21.998C25.2986 23.8243 23.8243 25.2986 21.998 25.2986Z" fill="white"/>
</svg>
